# xmcd
#
# Track frame offsets: 
#        150
#        10892
#        23197
#        36577
#        46617
#        57097
#        67010
#        80860
#        96337
#        109477
#        124307
#        138315
#        150810
#        162777
#        178165
#        195205
#        207547
#        220275
#        235740
#        247137
#
# Disc length: 3439 seconds
#
# Revision: 2
# Processed by: cddbd v1.5.1PL0 Copyright (c) Steve Scherf et al.
# Submitted via: ExactAudioCopy v0.95a4
#
DISCID=1e0d6d14
DTITLE=Carl Perkins - The Best Of Carl Perkins
DYEAR=1994
DGENRE=Country
TTITLE0=I Don't Like What I'm Seeing In You
TTITLE1=Rise And Shine
TTITLE2=Hallelujah SpeciaL
TTITLE3=This Ole House
TTITLE4=Blue Suede Shoes
TTITLE5=All Mama's Children
TTITLE6=Country Soul
TTITLE7=When You're 21
TTITLE8=Sundays Are Fundays With My Lord
TTITLE9=Redneck
TTITLE10=Every Road
TTITLE11=Don't Get Off On Gettin' It On
TTITLE12=Standing In The Need Of Love
TTITLE13=I Don't Want To Fall In Love Again
TTITLE14=Sweeter Than Candy
TTITLE15=I Want You Back Again
TTITLE16=We Did In '54
TTITLE17=The Hurt Put On By You
TTITLE18=Thats Right
TTITLE19=Dixie Fried
EXTD=YEAR: 1994 ID3G: 2
EXTT0=
EXTT1=
EXTT2=
EXTT3=
EXTT4=
EXTT5=
EXTT6=
EXTT7=
EXTT8=
EXTT9=
EXTT10=
EXTT11=
EXTT12=
EXTT13=
EXTT14=
EXTT15=
EXTT16=
EXTT17=
EXTT18=
EXTT19=
PLAYORDER=
